# xmcd
#
# Track frame offsets:
# 150
# 20090
# 40657
# 58977
# 76395
# 92449
# 110686
# 128970
# 146687
# 164918
# 185470
# 206240
#
# Disc length: 2961 seconds
#
#
# Revision: 0
# Processed by: cddbd v1.5.1PL2 Copyright (c) Steve Scherf et al.
# Submitted via: FreeRIP 2.942 
#
DISCID=b30b8f0c
DTITLE=Eric Burdon and The Animals - Live CD 3
DYEAR=2001
DGENRE=Alt. Rock
TTITLE0=House of the rising Sun
TTITLE1=Don´t let me be misunderstood
TTITLE2=We gotta get out of this place
TTITLE3=When I was young
TTITLE4=The real me
TTITLE5=Spill the wine
TTITLE6=Paint it black
TTITLE7=Mother Earth
TTITLE8=Magic Mountain
TTITLE9=Nights in white Satin
TTITLE10=Tobacco Road
TTITLE11=It´s my Life
EXTD=
EXTT0=
EXTT1=
EXTT2=
EXTT3=
EXTT4=
EXTT5=
EXTT6=
EXTT7=
EXTT8=
EXTT9=
EXTT10=
EXTT11=
PLAYORDER=
